<mxfile host="65bd71144e">
    <diagram id="SYI77yM76lYhtbMfJ1UM" name="第 1 页">
        <mxGraphModel dx="820" dy="401" grid="0" gridSize="10" guides="1" tooltips="1" connect="1" arrows="1" fold="1" page="0" pageScale="1" pageWidth="827" pageHeight="1169" background="#FFFF66" math="0" shadow="0">
            <root>
                <mxCell id="0"/>
                <mxCell id="1" parent="0"/>
                <mxCell id="4" value="" style="edgeStyle=none;html=1;strokeWidth=4;strokeColor=#191919;" edge="1" parent="1" source="2" target="3">
                    <mxGeometry relative="1" as="geometry"/>
                </mxCell>
                <mxCell id="2" value="&lt;font color=&quot;#191919&quot; style=&quot;font-size: 14px&quot;&gt;开始&lt;/font&gt;" style="ellipse;whiteSpace=wrap;html=1;aspect=fixed;fillColor=#76608a;strokeColor=#432D57;fontColor=#ffffff;strokeWidth=1;" vertex="1" parent="1">
                    <mxGeometry x="338" y="14" width="60" height="60" as="geometry"/>
                </mxCell>
                <mxCell id="3" value="&lt;font color=&quot;#191919&quot; style=&quot;font-size: 14px&quot;&gt;获取PBFT请求类型&lt;/font&gt;" style="whiteSpace=wrap;html=1;fontColor=#ffffff;strokeColor=#432D57;fillColor=#76608a;" vertex="1" parent="1">
                    <mxGeometry x="305.5" y="116" width="125" height="41" as="geometry"/>
                </mxCell>
                <mxCell id="5" value="&lt;font color=&quot;#191919&quot;&gt;&lt;span style=&quot;font-size: 14px&quot;&gt;Prepare是否有效&lt;/span&gt;&lt;/font&gt;" style="whiteSpace=wrap;html=1;fontColor=#ffffff;strokeColor=#432D57;fillColor=#76608a;" vertex="1" parent="1">
                    <mxGeometry x="78" y="197" width="125" height="41" as="geometry"/>
                </mxCell>
            </root>
        </mxGraphModel>
    </diagram>
</mxfile>